<svg width="18" height="22" viewBox="0 0 18 22" fill="none" xmlns="http://www.w3.org/2000/svg">
<path d="M6 16.7889H5M6 12.7889H5M12 16.7889H13M12 12.7889H13M5 20.7889H13C15.2091 20.7889 17 18.9981 17 16.7889V4.78894C17 2.5798 15.2091 0.78894 13 0.78894H5C2.79086 0.78894 1 2.5798 1 4.78894V16.7889C1 18.9981 2.79086 20.7889 5 20.7889ZM6 7.78894H12C12.5523 7.78894 13 7.34123 13 6.78894V5.78894C13 5.23666 12.5523 4.78894 12 4.78894H6C5.44772 4.78894 5 5.23666 5 5.78894V6.78894C5 7.34123 5.44772 7.78894 6 7.78894Z" stroke="#2B3F6C" stroke-width="1.5" stroke-linecap="round"/>
</svg>
