<svg width="17" height="16" viewBox="0 0 17 16" fill="none" xmlns="http://www.w3.org/2000/svg">
<path d="M16 7.51094H12.6667M14.3333 9.13868V5.88321M3.5 4.25547C3.5 6.05342 4.99238 7.51094 6.83333 7.51094C8.67428 7.51094 10.1667 6.05342 10.1667 4.25547C10.1667 2.45752 8.67428 1 6.83333 1C4.99238 1 3.5 2.45752 3.5 4.25547ZM10.0153 14.8728L10.8107 14.9837C11.7902 15.1204 12.6667 14.3781 12.6667 13.4116V12.341C12.6667 11.6408 12.216 11.0161 11.5408 10.7806C8.49663 9.71884 5.17003 9.71884 2.12591 10.7806C1.45071 11.0161 1 11.6408 1 12.341V13.4116C1 14.3781 1.87642 15.1204 2.85601 14.9837L3.65135 14.8728C5.76196 14.5783 7.90471 14.5783 10.0153 14.8728Z" stroke="white" stroke-linecap="round"/>
</svg>
