<svg width="21" height="21" viewBox="0 0 21 21" fill="none" xmlns="http://www.w3.org/2000/svg">
<path d="M17.2976 5.78978V15.4803M17.2976 5.78978C18.514 5.78978 19.5 4.80398 19.5 3.58763C19.5 2.37129 18.514 1.38525 17.2976 1.38525C16.0813 1.38525 15.0952 2.37106 15.0952 3.5874M17.2976 5.78978C16.0813 5.78978 15.0952 4.80374 15.0952 3.5874M17.2976 15.4803C16.0813 15.4803 15.0952 16.4663 15.0952 17.6826M17.2976 15.4803C18.514 15.4803 19.5 16.4665 19.5 17.6829C19.5 18.8992 18.514 19.8853 17.2976 19.8853C16.0813 19.8853 15.0952 18.899 15.0952 17.6826M5.40476 3.5874H15.0952M5.40476 3.5874C5.40476 4.80374 4.41872 5.78978 3.20238 5.78978M5.40476 3.5874C5.40476 2.37106 4.41872 1.38525 3.20238 1.38525C1.98604 1.38525 1 2.37129 1 3.58763C1 4.80398 1.98604 5.78978 3.20238 5.78978M15.0952 17.6826H5.40476M5.40476 17.6826C5.40476 18.899 4.41872 19.8853 3.20238 19.8853C1.98604 19.8853 1 18.8992 1 17.6829C1 16.4665 1.98604 15.4803 3.20238 15.4803M5.40476 17.6826C5.40476 16.4663 4.41872 15.4803 3.20238 15.4803M3.20238 15.4803V5.78978" stroke="#2B3F6C" stroke-width="1.5"/>
</svg>
