<svg width="13" height="12" viewBox="0 0 13 12" fill="none" xmlns="http://www.w3.org/2000/svg">
<path d="M6.55646 2.24651L6.9647 1.95782V1.95782L6.55646 2.24651ZM6.16854 1.69794L5.7603 1.98662V1.98662L6.16854 1.69794ZM10.95 4.05556C10.95 4.3317 11.1739 4.55556 11.45 4.55556C11.7261 4.55556 11.95 4.3317 11.95 4.05556H10.95ZM6.5 8C6.22386 8 6 8.22386 6 8.5C6 8.77614 6.22386 9 6.5 9V8ZM9.8 9C10.0761 9 10.3 8.77614 10.3 8.5C10.3 8.22386 10.0761 8 9.8 8V9ZM11.5 5.72222V8.22222H12.5V5.72222H11.5ZM9.25 10.5H3.75V11.5H9.25V10.5ZM1.5 8.22222V3.77778H0.5V8.22222H1.5ZM3.75 1.5H4.82588V0.5H3.75V1.5ZM5.7603 1.98662L6.14822 2.53519L6.9647 1.95782L6.57678 1.40925L5.7603 1.98662ZM7.89912 3.44444H9.25V2.44444H7.89912V3.44444ZM6.14822 2.53519C6.55091 3.10465 7.20264 3.44444 7.89912 3.44444V2.44444C7.52986 2.44444 7.18146 2.26435 6.9647 1.95782L6.14822 2.53519ZM4.82588 1.5C5.19514 1.5 5.54354 1.68009 5.7603 1.98662L6.57678 1.40925C6.17409 0.839793 5.52236 0.5 4.82588 0.5V1.5ZM3.75 10.5C2.51209 10.5 1.5 9.48495 1.5 8.22222H0.5C0.5 10.0277 1.95035 11.5 3.75 11.5V10.5ZM11.5 8.22222C11.5 9.48495 10.4879 10.5 9.25 10.5V11.5C11.0497 11.5 12.5 10.0277 12.5 8.22222H11.5ZM12.5 5.72222C12.5 3.91671 11.0497 2.44444 9.25 2.44444V3.44444C10.4879 3.44444 11.5 4.45949 11.5 5.72222H12.5ZM1.5 3.77778C1.5 2.51505 2.51209 1.5 3.75 1.5V0.5C1.95035 0.5 0.5 1.97226 0.5 3.77778H1.5ZM5.95 2.05556H8.975V1.05556H5.95V2.05556ZM8.975 2.05556C10.061 2.05556 10.95 2.94624 10.95 4.05556H11.95C11.95 2.40345 10.6228 1.05556 8.975 1.05556V2.05556ZM6.5 9H9.8V8H6.5V9Z" fill="#E3E3E3"/>
</svg>
