<svg width="22" height="20" viewBox="0 0 22 20" fill="none" xmlns="http://www.w3.org/2000/svg">
<path d="M12.1494 12.2267L12.3649 12.9451L12.1494 12.2267ZM9.85061 12.2267L9.63511 12.9451L9.85061 12.2267ZM2.42531 9.99913L2.64082 9.28076L2.42531 9.99913ZM19.5747 9.99913L19.3592 9.28076L19.5747 9.99913ZM10.25 9.5717C10.25 9.98591 10.5858 10.3217 11 10.3217C11.4142 10.3217 11.75 9.98591 11.75 9.5717H10.25ZM3 5.17871H19V3.67871H3V5.17871ZM20.25 6.42871V8.08347H21.75V6.42871H20.25ZM1.75 8.08347V6.42871H0.25V8.08347H1.75ZM19.3592 9.28076L11.9339 11.5083L12.3649 12.9451L19.7902 10.7175L19.3592 9.28076ZM10.0661 11.5083L2.64082 9.28076L2.2098 10.7175L9.63511 12.9451L10.0661 11.5083ZM11.9339 11.5083C11.3247 11.6911 10.6753 11.6911 10.0661 11.5083L9.63511 12.9451C10.5254 13.2122 11.4746 13.2122 12.3649 12.9451L11.9339 11.5083ZM0.25 8.08347C0.25 9.2979 1.04659 10.3685 2.2098 10.7175L2.64082 9.28076C2.11209 9.12214 1.75 8.63549 1.75 8.08347H0.25ZM20.25 8.08347C20.25 8.63549 19.8879 9.12214 19.3592 9.28076L19.7902 10.7175C20.9534 10.3685 21.75 9.2979 21.75 8.08347H20.25ZM19 5.17871C19.6904 5.17871 20.25 5.73836 20.25 6.42871H21.75C21.75 4.90993 20.5188 3.67871 19 3.67871V5.17871ZM3 3.67871C1.48122 3.67871 0.25 4.90993 0.25 6.42871H1.75C1.75 5.73836 2.30964 5.17871 3 5.17871V3.67871ZM10.25 7.85742V9.5717H11.75V7.85742H10.25ZM19.4167 9.57129V14.9998H20.9167V9.57129H19.4167ZM16.1667 18.2498H5.83338V19.7498H16.1667V18.2498ZM2.58337 14.9998V9.57129H1.08337V14.9998H2.58337ZM5.83338 18.2498C4.03845 18.2498 2.58337 16.7947 2.58337 14.9998H1.08337C1.08337 17.6232 3.21002 19.7498 5.83338 19.7498V18.2498ZM19.4167 14.9998C19.4167 16.7947 17.9616 18.2498 16.1667 18.2498V19.7498C18.7901 19.7498 20.9167 17.6232 20.9167 14.9998H19.4167ZM9.66665 1.75H12.3333V0.25H9.66665V1.75ZM13.5833 3V4.42855H15.0833V3H13.5833ZM8.41665 4.42855V3H6.91665V4.42855H8.41665ZM12.3333 1.75C13.0237 1.75 13.5833 2.30964 13.5833 3H15.0833C15.0833 1.48122 13.8521 0.25 12.3333 0.25V1.75ZM9.66665 0.25C8.14786 0.25 6.91665 1.48122 6.91665 3H8.41665C8.41665 2.30964 8.97629 1.75 9.66665 1.75V0.25Z" fill="#2B3F6C"/>
</svg>
