<svg width="12" height="11" viewBox="0 0 12 11" fill="none" xmlns="http://www.w3.org/2000/svg">
<path d="M3 0C1.34315 0 0 1.30141 0 2.90678V10.4176C0 10.905 0.581959 11.176 0.974817 10.8715L2.6713 9.5565C2.88408 9.39157 3.14845 9.30171 3.42094 9.30171H9C10.6569 9.30171 12 8.0003 12 6.39493V2.90678C12 1.30141 10.6569 0 9 0H3Z" fill="#F8F8F8"/>
<path d="M3.77999 4.67981C3.77999 5.08115 3.44421 5.40651 3.02999 5.40651C2.61578 5.40651 2.27999 5.08115 2.27999 4.67981C2.27999 4.27847 2.61578 3.95311 3.02999 3.95311C3.44421 3.95311 3.77999 4.27847 3.77999 4.67981Z" fill="#203855"/>
<path d="M6.77999 4.67981C6.77999 5.08115 6.44421 5.40651 6.02999 5.40651C5.61578 5.40651 5.27999 5.08115 5.27999 4.67981C5.27999 4.27847 5.61578 3.95311 6.02999 3.95311C6.44421 3.95311 6.77999 4.27847 6.77999 4.67981Z" fill="#203855"/>
<path d="M9.77999 4.67981C9.77999 5.08115 9.44421 5.40651 9.02999 5.40651C8.61578 5.40651 8.27999 5.08115 8.27999 4.67981C8.27999 4.27847 8.61578 3.95311 9.02999 3.95311C9.44421 3.95311 9.77999 4.27847 9.77999 4.67981Z" fill="#203855"/>
</svg>
