<svg width="20" height="16" viewBox="0 0 20 16" fill="none" xmlns="http://www.w3.org/2000/svg">
<path d="M19 3.75C19.4142 3.75 19.75 3.41421 19.75 3C19.75 2.58579 19.4142 2.25 19 2.25V3.75ZM1 12.25C0.585786 12.25 0.25 12.5858 0.25 13C0.25 13.4142 0.585787 13.75 1 13.75L1 12.25ZM9 3.75L19 3.75V2.25L9 2.25V3.75ZM0.25 3C0.25 4.51878 1.48122 5.75 3 5.75V4.25C2.30964 4.25 1.75 3.69036 1.75 3H0.25ZM3 5.75C4.51878 5.75 5.75 4.51878 5.75 3H4.25C4.25 3.69036 3.69036 4.25 3 4.25V5.75ZM5.75 3C5.75 1.48122 4.51878 0.25 3 0.25V1.75C3.69036 1.75 4.25 2.30964 4.25 3H5.75ZM3 0.25C1.48122 0.25 0.25 1.48122 0.25 3H1.75C1.75 2.30964 2.30964 1.75 3 1.75V0.25ZM11 12.25L1 12.25L1 13.75L11 13.75V12.25ZM18.25 13C18.25 13.6904 17.6904 14.25 17 14.25V15.75C18.5188 15.75 19.75 14.5188 19.75 13H18.25ZM17 14.25C16.3096 14.25 15.75 13.6904 15.75 13H14.25C14.25 14.5188 15.4812 15.75 17 15.75V14.25ZM15.75 13C15.75 12.3096 16.3096 11.75 17 11.75V10.25C15.4812 10.25 14.25 11.4812 14.25 13H15.75ZM17 11.75C17.6904 11.75 18.25 12.3096 18.25 13H19.75C19.75 11.4812 18.5188 10.25 17 10.25V11.75Z" fill="#2B3F6C"/>
</svg>
