<svg width="20" height="20" viewBox="0 0 20 20" fill="none" xmlns="http://www.w3.org/2000/svg">
<path d="M19 3.75C19.4142 3.75 19.75 3.41421 19.75 3C19.75 2.58579 19.4142 2.25 19 2.25V3.75ZM1 8.75C0.585786 8.75 0.25 9.08579 0.25 9.5C0.25 9.91421 0.585787 10.25 1 10.25L1 8.75ZM19 17.25C19.4142 17.25 19.75 16.9142 19.75 16.5C19.75 16.0858 19.4142 15.75 19 15.75V17.25ZM9 3.75L19 3.75V2.25L9 2.25V3.75ZM0.25 3C0.25 4.51878 1.48122 5.75 3 5.75V4.25C2.30964 4.25 1.75 3.69036 1.75 3H0.25ZM3 5.75C4.51878 5.75 5.75 4.51878 5.75 3H4.25C4.25 3.69036 3.69036 4.25 3 4.25V5.75ZM5.75 3C5.75 1.48122 4.51878 0.25 3 0.25V1.75C3.69036 1.75 4.25 2.30964 4.25 3H5.75ZM3 0.25C1.48122 0.25 0.25 1.48122 0.25 3H1.75C1.75 2.30964 2.30964 1.75 3 1.75V0.25ZM11 8.75L1 8.75L1 10.25L11 10.25V8.75ZM18.25 9.5C18.25 10.1904 17.6904 10.75 17 10.75V12.25C18.5188 12.25 19.75 11.0188 19.75 9.5H18.25ZM17 10.75C16.3096 10.75 15.75 10.1904 15.75 9.5H14.25C14.25 11.0188 15.4812 12.25 17 12.25V10.75ZM15.75 9.5C15.75 8.80964 16.3096 8.25 17 8.25V6.75C15.4812 6.75 14.25 7.98122 14.25 9.5H15.75ZM17 8.25C17.6904 8.25 18.25 8.80964 18.25 9.5H19.75C19.75 7.98122 18.5188 6.75 17 6.75V8.25ZM9 17.25H19V15.75L9 15.75V17.25ZM0.25 16.5C0.25 18.0188 1.48122 19.25 3 19.25V17.75C2.30964 17.75 1.75 17.1904 1.75 16.5H0.25ZM3 19.25C4.51878 19.25 5.75 18.0188 5.75 16.5H4.25C4.25 17.1904 3.69036 17.75 3 17.75V19.25ZM5.75 16.5C5.75 14.9812 4.51878 13.75 3 13.75V15.25C3.69036 15.25 4.25 15.8096 4.25 16.5H5.75ZM3 13.75C1.48122 13.75 0.25 14.9812 0.25 16.5H1.75C1.75 15.8096 2.30964 15.25 3 15.25V13.75Z" fill="#2B3F6C"/>
</svg>
