<svg width="21" height="21" viewBox="0 0 21 21" fill="none" xmlns="http://www.w3.org/2000/svg">
<path d="M1 9.34211C1 8.11792 1.56058 6.96114 2.52142 6.20258L8.02142 1.86047C9.47466 0.713176 11.5253 0.713178 12.9786 1.86047L18.4786 6.20258C19.4394 6.96114 20 8.11792 20 9.34211V15.9037C20 18.1128 18.2091 19.9037 16 19.9037H14.5C13.9477 19.9037 13.5 19.456 13.5 18.9037V15.9037C13.5 14.7991 12.6046 13.9037 11.5 13.9037H9.5C8.39543 13.9037 7.5 14.7991 7.5 15.9037V18.9037C7.5 19.456 7.05228 19.9037 6.5 19.9037H5C2.79086 19.9037 1 18.1128 1 15.9037V9.34211Z" stroke="#203855" stroke-width="1.5"/>
</svg>
