<svg width="11" height="10" viewBox="0 0 11 10" fill="none" xmlns="http://www.w3.org/2000/svg">
<path d="M6.25946 0.346131C6.71117 -0.11513 7.44381 -0.115413 7.89586 0.3455L9.33807 1.81599C9.78627 2.27298 9.79092 3.01278 9.34851 3.47559L8.38779 4.48062L5.29687 1.32909L6.25946 0.346131Z" fill="white"/>
<path d="M4.68345 1.95548L7.78179 5.11457L4.00463 9.06595C3.67796 9.40769 3.22991 9.60039 2.76207 9.60037L1.1692 9.6003C0.675604 9.60028 0.281416 9.18075 0.302176 8.67754L0.37056 7.01988C0.388848 6.57656 0.569554 6.1564 0.876922 5.84253L4.68345 1.95548Z" fill="white"/>
<path d="M10.0045 10C10.2441 10 10.4384 9.80177 10.4384 9.55724C10.4384 9.31271 10.2441 9.11448 10.0045 9.11448H6.46139C6.22174 9.11448 6.02747 9.31271 6.02747 9.55724C6.02747 9.80177 6.22174 10 6.46139 10H10.0045Z" fill="white"/>
</svg>
