<svg width="20" height="19" viewBox="0 0 20 19" fill="none" xmlns="http://www.w3.org/2000/svg">
<path d="M1.5 2.98157C1.5 1.877 2.39543 0.981567 3.5 0.981567H6.5C7.60457 0.981567 8.5 1.877 8.5 2.98157C8.5 4.08614 7.60457 4.98157 6.5 4.98157H3.5C2.39543 4.98157 1.5 4.08614 1.5 2.98157Z" stroke="#2B3F6C" stroke-width="1.5"/>
<path d="M1.5 10.4816C1.5 9.10086 2.61929 7.98157 4 7.98157H6C7.38071 7.98157 8.5 9.10086 8.5 10.4816V15.4816C8.5 16.8623 7.38071 17.9816 6 17.9816H4C2.61929 17.9816 1.5 16.8623 1.5 15.4816V10.4816Z" stroke="#2B3F6C" stroke-width="1.5"/>
<path d="M11.5 3.48157C11.5 2.10086 12.6193 0.981567 14 0.981567H16C17.3807 0.981567 18.5 2.10086 18.5 3.48157V8.48157C18.5 9.86228 17.3807 10.9816 16 10.9816H14C12.6193 10.9816 11.5 9.86228 11.5 8.48157V3.48157Z" stroke="#2B3F6C" stroke-width="1.5"/>
<path d="M11.5 15.9816C11.5 14.877 12.3954 13.9816 13.5 13.9816H16.5C17.6046 13.9816 18.5 14.877 18.5 15.9816C18.5 17.0861 17.6046 17.9816 16.5 17.9816H13.5C12.3954 17.9816 11.5 17.0861 11.5 15.9816Z" stroke="#2B3F6C" stroke-width="1.5"/>
</svg>
