<svg width="16" height="17" viewBox="0 0 16 17" fill="none" xmlns="http://www.w3.org/2000/svg">
<path fill-rule="evenodd" clip-rule="evenodd" d="M0.711212 9.20833C1.09018 9.20833 1.3913 8.88587 1.3913 8.5C1.3913 5.87032 2.01096 4.16084 3.00451 3.1052C3.98746 2.06081 5.56323 1.41667 8 1.41667C10.4368 1.41667 12.0125 2.06081 12.9955 3.1052C13.4764 3.61617 13.8697 4.28034 14.1476 5.12791C14.2502 5.44103 14.5292 5.66667 14.8534 5.66667C15.3047 5.66667 15.6428 5.24051 15.5066 4.80243C14.5111 1.60081 12.0088 0 8 0C2.66667 0 0 2.83333 0 8.5C0 8.5104 8.98355e-06 8.52079 2.69506e-05 8.53117C0.000682308 8.90985 0.307845 9.20833 0.679743 9.20833H0.711212ZM1.85243 11.8721C1.74978 11.559 1.47078 11.3333 1.14659 11.3333C0.695298 11.3333 0.35716 11.7595 0.493385 12.1976C1.48895 15.3992 3.99115 17 8 17C13.3333 17 16 14.1667 16 8.5C16 8.4896 16 8.47921 16 8.46883C15.9993 8.09015 15.6922 7.79167 15.3203 7.79167H15.2888C14.9098 7.79167 14.6087 8.11413 14.6087 8.5C14.6087 11.1297 13.989 12.8392 12.9955 13.8948C12.0125 14.9392 10.4368 15.5833 8 15.5833C5.56323 15.5833 3.98746 14.9392 3.00451 13.8948C2.52359 13.3838 2.13027 12.7197 1.85243 11.8721Z" fill="white"/>
</svg>
