<svg width="21" height="22" viewBox="0 0 21 22" fill="none" xmlns="http://www.w3.org/2000/svg">
<path d="M7.48383 11C7.48383 12.6569 8.82697 14 10.4838 14C12.1407 14 13.4838 12.6569 13.4838 11C13.4838 9.34315 12.1407 8 10.4838 8C8.82697 8 7.48383 9.34315 7.48383 11Z" stroke="#2B3F6C" stroke-width="1.5"/>
<path d="M12.9448 1.30508C13.272 1.38787 13.4849 1.68633 13.561 2.01511C13.7419 2.79693 14.2341 3.50461 14.9839 3.9375C15.6729 4.33529 16.4541 4.42872 17.1718 4.2595C17.4999 4.18215 17.8613 4.24076 18.0806 4.49671C18.8818 5.4317 19.5133 6.51632 19.9275 7.70289C20.0528 8.0617 19.8707 8.44185 19.5774 8.68352C18.9096 9.23375 18.4838 10.0672 18.4838 11C18.4838 11.9328 18.9096 12.7662 19.5774 13.3165C19.8707 13.5581 20.0528 13.9383 19.9275 14.2971C19.5134 15.4835 18.8819 16.5681 18.0809 17.503C17.8615 17.759 17.5001 17.8176 17.172 17.7402C16.4542 17.5709 15.673 17.6643 14.9839 18.0621C14.234 18.4951 13.7418 19.2029 13.5609 19.9848C13.4848 20.3136 13.2719 20.6122 12.9447 20.695C12.1574 20.8942 11.333 21 10.4838 21C9.63472 21 8.81031 20.8942 8.0231 20.695C7.69591 20.6122 7.48292 20.3137 7.40687 19.9848C7.22602 19.2029 6.73376 18.4951 5.98387 18.0621C5.2948 17.6643 4.51349 17.5709 3.79571 17.7402C3.46761 17.8176 3.10616 17.759 2.88683 17.503C2.08578 16.5681 1.45433 15.4836 1.04014 14.2971C0.914872 13.9383 1.09695 13.5582 1.39027 13.3165C2.05809 12.7663 2.48386 11.9329 2.48386 11C2.48386 10.0671 2.05809 9.23374 1.39027 8.68351C1.09696 8.44184 0.914874 8.06169 1.04014 7.70287C1.45438 6.5163 2.08593 5.43167 2.8871 4.49667C3.10642 4.24072 3.46782 4.18212 3.7959 4.25948C4.51363 4.42873 5.29486 4.33531 5.98388 3.9375C6.73368 3.5046 7.22591 2.79691 7.40681 2.01508C7.48289 1.6863 7.69587 1.38783 8.02302 1.30504C8.81026 1.10584 9.63469 1 10.4838 1C11.333 1 12.1575 1.10585 12.9448 1.30508Z" stroke="#2B3F6C" stroke-width="1.5"/>
</svg>
