<svg width="10" height="10" viewBox="0 0 10 10" fill="none" xmlns="http://www.w3.org/2000/svg">
<path fill-rule="evenodd" clip-rule="evenodd" d="M0 2.67442C0 1.19738 1.19738 0 2.67442 0H7.32558C8.80262 0 10 1.19738 10 2.67442V7.32558C10 8.80262 8.80262 10 7.32558 10H2.67442C1.19738 10 0 8.80262 0 7.32558V2.67442ZM5.5814 4.53488C5.5814 4.34223 5.42522 4.18605 5.23256 4.18605H4.30233C4.10967 4.18605 3.95349 4.34223 3.95349 4.53488C3.95349 4.72754 4.10967 4.88372 4.30233 4.88372H4.88372V7.32558C4.88372 7.51824 5.0399 7.67442 5.23256 7.67442C5.42522 7.67442 5.5814 7.51824 5.5814 7.32558V4.53488ZM5.5814 2.67442C5.5814 2.48176 5.42522 2.32558 5.23256 2.32558C5.0399 2.32558 4.88372 2.48176 4.88372 2.67442V3.13953C4.88372 3.33219 5.0399 3.48837 5.23256 3.48837C5.42522 3.48837 5.5814 3.33219 5.5814 3.13953V2.67442Z" fill="white"/>
</svg>
