<svg width="17" height="16" viewBox="0 0 17 16" fill="none" xmlns="http://www.w3.org/2000/svg">
<path d="M7.72279 1.78741C8.07535 1.21368 8.92466 1.21368 9.27722 1.78741L11.0389 4.6542C11.1655 4.86032 11.3721 5.00731 11.6114 5.06159L14.9397 5.81652C15.6058 5.96761 15.8683 6.75868 15.4201 7.26435L13.1805 9.79105C13.0195 9.97272 12.9406 10.2106 12.9618 10.4502L13.2572 13.7836C13.3163 14.4507 12.6292 14.9396 11.9996 14.6784L8.85386 13.3732C8.62769 13.2794 8.37232 13.2794 8.14615 13.3732L5.00038 14.6784C4.37081 14.9396 3.6837 14.4507 3.74282 13.7836L4.03821 10.4502C4.05945 10.2106 3.98054 9.97271 3.81952 9.79105L1.57993 7.26435C1.13172 6.75868 1.39418 5.96761 2.06028 5.81652L5.38861 5.06159C5.62791 5.00731 5.8345 4.86031 5.96116 4.6542L7.72279 1.78741Z" fill="#CE9A60" stroke="white"/>
</svg>
