<svg width="16" height="10" viewBox="0 0 16 10" fill="none" xmlns="http://www.w3.org/2000/svg">
<rect width="16" height="10" rx="2" fill="#2B3F6C"/>
<rect x="1.75" y="1.75" width="6.5" height="6.5" rx="1.25" fill="#2B3F6C" stroke="#E0E0E0" stroke-width="0.5"/>
<path d="M3 6.95833C3 7.81615 3.353 8 5 8C6.647 8 7 7.81615 7 6.95833C7 6.10052 6.647 5.91667 5 5.91667C3.353 5.91667 3 6.10052 3 6.95833Z" fill="#E0E0E0"/>
<path d="M3.90909 4.25C3.90909 4.94036 4.39751 5.5 5 5.5C5.60249 5.5 6.09091 4.94036 6.09091 4.25C6.09091 3.55964 5.60249 3 5 3C4.39751 3 3.90909 3.55964 3.90909 4.25Z" fill="#E0E0E0"/>
<path d="M10 3H14" stroke="#E0E0E0" stroke-width="0.5"/>
<path d="M10 5H14" stroke="#E0E0E0" stroke-width="0.5"/>
<path d="M10 7H14" stroke="#E0E0E0" stroke-width="0.5"/>
</svg>
