<svg width="12" height="12" viewBox="0 0 12 12" fill="none" xmlns="http://www.w3.org/2000/svg">
<path d="M1 2.03182C1 1.46196 1.44772 1 2 1H10C10.5523 1 11 1.46196 11 2.03182V2.45358C11 2.84561 10.8558 3.22303 10.5966 3.50962L7.76894 6.63563C7.59612 6.8267 7.5 7.07831 7.5 7.33966V9.45161C7.5 9.64702 7.393 9.82566 7.22361 9.91305L5.22361 10.9449C4.89116 11.1164 4.5 10.8669 4.5 10.4834V7.33966C4.5 7.07831 4.40388 6.82669 4.23106 6.63563L1.40342 3.50962C1.14418 3.22303 1 2.84561 1 2.45358V2.03182Z" stroke="#969696"/>
</svg>
