<svg width="8" height="10" viewBox="0 0 8 10" fill="none" xmlns="http://www.w3.org/2000/svg">
<path fill-rule="evenodd" clip-rule="evenodd" d="M5.02857 0.00294864C5.00026 0.000989716 4.97178 0 4.9432 0H2.17143C0.972182 0 0 0.989138 0 2.2093V7.7907C0 9.01086 0.972182 10 2.17143 10H5.82857C7.02782 10 8 9.01086 8 7.7907V3.48837H6.28571C5.59141 3.48837 5.02857 2.91571 5.02857 2.2093V0.00294864ZM1.82857 5C1.82857 4.80734 1.98207 4.65116 2.17143 4.65116H5.82857C6.01793 4.65116 6.17143 4.80734 6.17143 5C6.17143 5.19266 6.01793 5.34884 5.82857 5.34884H2.17143C1.98207 5.34884 1.82857 5.19266 1.82857 5ZM2.17143 6.97674C1.98207 6.97674 1.82857 7.13292 1.82857 7.32558C1.82857 7.51824 1.98207 7.67442 2.17143 7.67442H4C4.18935 7.67442 4.34286 7.51824 4.34286 7.32558C4.34286 7.13292 4.18935 6.97674 4 6.97674H2.17143Z" fill="#2B3F6C"/>
<path d="M7.80413 2.7907C7.77528 2.74446 7.7434 2.69995 7.70862 2.65749L5.90896 0.460229C5.85049 0.388841 5.78513 0.324823 5.71429 0.268847V2.2093C5.71429 2.5304 5.97012 2.7907 6.28571 2.7907H7.80413Z" fill="#2B3F6C"/>
</svg>
