<svg width="16" height="17" viewBox="0 0 16 17" fill="none" xmlns="http://www.w3.org/2000/svg">
<path d="M12.448 6.64546L14.101 7.50772L14.4471 7.6952C15.1843 8.09462 15.1843 9.12437 14.4471 9.52379L9.75191 12.0675C8.66301 12.6574 7.33699 12.6574 6.24809 12.0675L1.55294 9.52379C0.815685 9.12437 0.815687 8.09462 1.55294 7.6952L1.89899 7.50772L3.46038 6.64546M12.8075 10.4846L14.31 11.2139C15.0849 11.59 15.1098 12.6548 14.3533 13.0647L9.75191 15.5576C8.66301 16.1475 7.33699 16.1475 6.24809 15.5576L1.71384 13.1011C0.944308 12.6841 0.98671 11.5958 1.78649 11.2365L3.46038 10.4846M9.75191 8.35838L14.4471 5.81471C15.1843 5.41529 15.1843 4.38554 14.4471 3.98612L9.75191 1.44245C8.66301 0.852518 7.33699 0.852517 6.24809 1.44245L1.55294 3.98612C0.815687 4.38554 0.815685 5.41529 1.55294 5.81471L6.24809 8.35838C7.33699 8.94831 8.66301 8.94831 9.75191 8.35838Z" stroke="white"/>
</svg>
